HIERARCHY
ROOT Hips
{
	OFFSET 0.000000 0.000000 0.000000 
	CHANNELS 6 Xposition Yposition Zposition Yrotation Xrotation Zrotation
	JOINT Spine
	{
		OFFSET 0.000000 0.072080 0.012321 
		CHANNELS 3 Xrotation Yrotation Zrotation
		JOINT Spine1
		{
			OFFSET 0.000000 0.126984 -0.001294 
			CHANNELS 3 Xrotation Yrotation Zrotation
			JOINT Spine2
			{
				OFFSET 0.000000 0.106559 -0.010096 
				CHANNELS 3 Xrotation Yrotation Zrotation
				JOINT Neck
				{
					OFFSET 0.000000 0.108417 -0.034017 
					CHANNELS 3 Xrotation Yrotation Zrotation
					JOINT Neck1
					{
						OFFSET 0.000000 0.033906 0.007241 
						CHANNELS 3 Xrotation Yrotation Zrotation
						JOINT Head
						{
							OFFSET 0.000000 0.031458 0.006707 
							CHANNELS 3 Xrotation Yrotation Zrotation
							End Site
							{
								OFFSET 0.000000 0.179920 0.000962 
							}
						}
					}
				}
				JOINT LeftShoulder
				{
					OFFSET 0.048002 0.079586 -0.029634 
					CHANNELS 3 Zrotation Xrotation Yrotation
					JOINT LeftArm
					{
						OFFSET 0.096243 -0.008695 -0.014012 
						CHANNELS 3 Zrotation Xrotation Yrotation
						JOINT LeftForeArm
						{
							OFFSET 0.216305 0.000000 0.000000 
							CHANNELS 3 Xrotation Zrotation Yrotation
							JOINT LeftHand
							{
								OFFSET 0.217764 0.000000 0.000000 
								CHANNELS 3 Zrotation Yrotation Xrotation
								JOINT LeftHandThumb1
								{
									OFFSET 0.018582 -0.007835 0.020476 
									CHANNELS 3 Zrotation Xrotation Yrotation
									JOINT LeftHandThumb2
									{
										OFFSET 0.026269 -0.007835 0.022186 
										CHANNELS 3 Zrotation Xrotation Yrotation
										JOINT LeftHandThumb3
										{
											OFFSET 0.035170 -0.010504 0.017018 
											CHANNELS 3 Zrotation Xrotation Yrotation
											End Site
											{
												OFFSET 0.020312 -0.007813 0.007813 
											}
										}
									}
								}
								JOINT LeftHandMiddle1
								{
									OFFSET 0.081749 0.004803 0.003358 
									CHANNELS 3 Zrotation Xrotation Yrotation
									JOINT LeftHandMiddle2
									{
										OFFSET 0.045251 0.000000 0.000000 
										CHANNELS 3 Zrotation Xrotation Yrotation
										JOINT LeftHandMiddle3
										{
											OFFSET 0.029009 0.000000 0.000000 
											CHANNELS 3 Zrotation Xrotation Yrotation
											End Site
											{
												OFFSET 0.017969 0.000000 0.000000 
											}
										}
									}
								}
								JOINT LeftHandIndex1
								{
									OFFSET 0.081207 0.004803 0.021137 
									CHANNELS 3 Zrotation Xrotation Yrotation
									JOINT LeftHandIndex2
									{
										OFFSET 0.043354 0.000000 0.000000 
										CHANNELS 3 Zrotation Xrotation Yrotation
										JOINT LeftHandIndex3
										{
											OFFSET 0.026493 0.000000 0.000000 
											CHANNELS 3 Zrotation Xrotation Yrotation
											End Site
											{
												OFFSET 0.019531 0.000000 0.000000 
											}
										}
									}
								}
								JOINT LeftHandRing1
								{
									OFFSET 0.080666 0.002509 -0.014652 
									CHANNELS 3 Zrotation Xrotation Yrotation
									JOINT LeftHandRing2
									{
										OFFSET 0.042541 0.000000 0.000000 
										CHANNELS 3 Zrotation Xrotation Yrotation
										JOINT LeftHandRing3
										{
											OFFSET 0.029009 0.000000 0.000000 
											CHANNELS 3 Zrotation Xrotation Yrotation
											End Site
											{
												OFFSET 0.015625 0.000000 0.000000 
											}
										}
									}
								}
								JOINT LeftHandPinky1
								{
									OFFSET 0.078227 -0.000612 -0.030993 
									CHANNELS 3 Zrotation Xrotation Yrotation
									JOINT LeftHandPinky2
									{
										OFFSET 0.028721 0.000000 0.000000 
										CHANNELS 3 Zrotation Xrotation Yrotation
										JOINT LeftHandPinky3
										{
											OFFSET 0.021963 0.000000 0.000000 
											CHANNELS 3 Zrotation Xrotation Yrotation
											End Site
											{
												OFFSET 0.022656 0.000000 0.000000 
											}
										}
									}
								}
							}
						}
					}
				}
				JOINT RightShoulder
				{
					OFFSET -0.047970 0.079586 -0.029634 
					CHANNELS 3 Zrotation Xrotation Yrotation
					JOINT RightArm
					{
						OFFSET -0.096274 -0.008695 -0.014012 
						CHANNELS 3 Zrotation Xrotation Yrotation
						JOINT RightForeArm
						{
							OFFSET -0.216305 0.000000 0.000000 
							CHANNELS 3 Xrotation Zrotation Yrotation
							JOINT RightHand
							{
								OFFSET -0.217764 0.000000 0.000000 
								CHANNELS 3 Zrotation Yrotation Xrotation
								JOINT RightHandThumb1
								{
									OFFSET -0.019670 -0.007318 0.019638 
									CHANNELS 3 Zrotation Xrotation Yrotation
									JOINT RightHandThumb2
									{
										OFFSET -0.025498 -0.008492 0.023179 
										CHANNELS 3 Zrotation Xrotation Yrotation
										JOINT RightHandThumb3
										{
											OFFSET -0.034504 -0.010705 0.016680 
											CHANNELS 3 Zrotation Xrotation Yrotation
											End Site
											{
												OFFSET -0.020312 -0.007813 0.007813 
											}
										}
									}
								}
								JOINT RightHandIndex1
								{
									OFFSET -0.081770 0.003825 0.021187 
									CHANNELS 3 Zrotation Xrotation Yrotation
									JOINT RightHandIndex2
									{
										OFFSET -0.042006 0.000000 0.000000 
										CHANNELS 3 Zrotation Xrotation Yrotation
										JOINT RightHandIndex3
										{
											OFFSET -0.026449 0.000000 0.000000 
											CHANNELS 3 Zrotation Xrotation Yrotation
											End Site
											{
												OFFSET -0.020312 0.000000 0.000000 
											}
										}
									}
								}
								JOINT RightHandMiddle1
								{
									OFFSET -0.084059 0.003825 0.003342 
									CHANNELS 3 Zrotation Xrotation Yrotation
									JOINT RightHandMiddle2
									{
										OFFSET -0.043881 0.000000 0.000000 
										CHANNELS 3 Zrotation Xrotation Yrotation
										JOINT RightHandMiddle3
										{
											OFFSET -0.029191 0.000000 0.000000 
											CHANNELS 3 Zrotation Xrotation Yrotation
											End Site
											{
												OFFSET -0.017969 0.000000 0.000000 
											}
										}
									}
								}
								JOINT RightHandRing1
								{
									OFFSET -0.081798 0.003030 -0.015127 
									CHANNELS 3 Zrotation Xrotation Yrotation
									JOINT RightHandRing2
									{
										OFFSET -0.042198 0.000000 0.000000 
										CHANNELS 3 Zrotation Xrotation Yrotation
										JOINT RightHandRing3
										{
											OFFSET -0.026497 0.000000 0.000000 
											CHANNELS 3 Zrotation Xrotation Yrotation
											End Site
											{
												OFFSET -0.017188 0.000000 0.000000 
											}
										}
									}
								}
								JOINT RightHandPinky1
								{
									OFFSET -0.077902 -0.000930 -0.030891 
									CHANNELS 3 Zrotation Xrotation Yrotation
									JOINT RightHandPinky2
									{
										OFFSET -0.028538 0.000000 0.000000 
										CHANNELS 3 Zrotation Xrotation Yrotation
										JOINT RightHandPinky3
										{
											OFFSET -0.021734 0.000000 0.000000 
											CHANNELS 3 Zrotation Xrotation Yrotation
											End Site
											{
												OFFSET -0.022656 0.000000 0.000000 
											}
										}
									}
								}
							}
						}
					}
				}
			}
		}
	}
	JOINT LeftUpLeg
	{
		OFFSET 0.075264 -0.025573 0.000000 
		CHANNELS 3 Xrotation Yrotation Zrotation
		JOINT LeftLeg
		{
			OFFSET 0.000000 -0.326016 -0.013516 
			CHANNELS 3 Xrotation Yrotation Zrotation
			JOINT LeftFoot
			{
				OFFSET 0.000098 -0.306172 -0.006623 
				CHANNELS 3 Xrotation Yrotation Zrotation
				JOINT LeftToeBase
				{
					OFFSET -0.001432 -0.095259 0.064705 
					CHANNELS 3 Xrotation Yrotation Zrotation
					End Site
					{
						OFFSET 0.000000 0.000000 0.079438 
					}
				}
			}
		}
	}
	JOINT RightUpLeg
	{
		OFFSET -0.075264 -0.025573 0.000000 
		CHANNELS 3 Xrotation Yrotation Zrotation
		JOINT RightLeg
		{
			OFFSET 0.000000 -0.326016 -0.013516 
			CHANNELS 3 Xrotation Yrotation Zrotation
			JOINT RightFoot
			{
				OFFSET 0.000098 -0.306172 -0.006623 
				CHANNELS 3 Xrotation Yrotation Zrotation
				JOINT RightToeBase
				{
					OFFSET -0.001432 -0.095259 0.064705 
					CHANNELS 3 Xrotation Yrotation Zrotation
					End Site
					{
						OFFSET 0.000025 0.000000 0.079438 
					}
				}
			}
		}
	}
}
MOTION
Frames: 6
Frame Time: 0.033333
0.000403 0.723303 -0.000434 1.766400 -7.268200 0.356200 13.995900 4.744500 0.083600 7.912800 1.559700 -0.560600 7.747300 1.735600 -0.421500 -0.947600 -0.922100 0.314900 -0.000000 0.000000 -0.000000 -13.753600 -9.063500 -0.758000 -11.915300 1.944500 -6.676900 -63.384201 16.817101 9.005000 0.000000 0.000000 -39.638100 3.332200 -4.033500 11.480300 -5.548300 6.602700 7.316300 17.403700 10.001800 -8.097200 23.186001 -7.795600 -39.003101 -34.889999 0.003200 0.551400 -46.303799 0.004600 -0.010900 -35.758598 0.002800 -0.008800 -35.158901 0.203500 -2.287000 -35.816200 0.002800 -0.008800 -24.480499 0.001400 -0.006200 -44.949699 0.005000 2.252000 -57.490898 0.007000 -0.012700 -46.744499 0.004700 -0.011000 -36.486301 -0.175100 1.059200 -50.095100 0.005400 -0.011500 -50.095501 0.005400 -0.011500 19.511700 1.447500 7.379700 55.913101 -1.773700 10.433700 0.000000 -0.000000 39.217602 -3.502600 1.141100 13.198800 5.379900 24.025499 -18.086500 -7.247600 -2.468900 5.066900 -14.971900 -19.150499 4.159200 45.132301 0.180000 10.232600 46.284901 0.002400 0.005700 46.284901 0.002400 0.005700 38.386600 0.001900 6.220800 54.010899 0.003300 0.006400 33.643101 0.001300 0.004400 37.072399 0.001800 4.476300 54.549900 0.003300 0.006500 8.599900 0.000100 0.001200 44.420799 -0.715600 3.954900 27.319401 0.000900 0.003600 23.098700 0.000600 0.003100 -15.313100 0.527200 6.027800 52.371700 2.692700 -0.470500 -7.496300 1.259300 -13.573500 -9.694600 0.000000 -0.000000 -9.539200 -4.366400 -1.911500 36.165199 -1.835300 -2.352600 -19.298201 -2.794700 3.049500 -0.252000 0.000000 0.000000 
-0.001028 0.721027 -0.020557 3.132800 -8.014300 0.385100 13.284200 3.562800 0.565500 7.862700 1.270500 -0.477600 7.695700 1.445000 -0.336400 -0.882600 -0.740100 0.206700 -0.000000 0.000000 -0.000000 -12.993200 -8.199000 -1.022000 -12.259600 1.972800 -6.654600 -60.357201 16.875500 5.280700 -0.000000 -0.000000 -38.980400 2.718600 -6.775800 9.032600 -4.916100 10.014400 9.497200 15.035600 8.435200 -5.512100 20.588800 -9.938700 -34.940498 -36.170200 0.003400 0.902000 -47.342999 0.004900 -0.011000 -37.316700 0.003100 -0.009100 -35.613300 0.584700 -1.473600 -36.837399 0.003000 -0.009000 -25.498600 0.001500 -0.006500 -47.010601 0.005400 2.751300 -59.098000 0.007300 -0.012900 -48.441002 0.005100 -0.011300 -45.718601 -0.361100 1.880600 -52.843102 0.006000 -0.012000 -52.831600 0.006000 -0.012000 18.585400 1.313200 6.487500 58.369801 -1.996900 1.797400 0.000000 0.000000 44.030201 -1.235000 0.845800 11.188200 5.504400 23.731100 -16.189400 -7.565100 -2.413600 4.580400 -15.608800 -18.604000 2.305100 38.760201 0.230000 10.349600 40.066299 0.001900 0.005100 40.066299 0.001900 0.005100 34.483601 0.001600 6.310400 49.437901 0.002800 0.006000 29.074100 0.001000 0.003800 35.420601 0.001700 4.444900 52.534100 0.003100 0.006300 6.583900 0.000000 0.000900 42.646801 -0.804200 3.712700 25.578100 0.000800 0.003400 21.362801 0.000600 0.002900 -9.339300 1.007300 5.854700 54.352901 0.987500 1.512100 -8.629600 1.760800 -15.492500 -9.669400 0.000000 -0.000000 -11.323700 -4.565100 -2.201900 37.859100 -2.764600 -1.984400 -18.463699 -2.824200 2.960800 -0.252100 -0.000000 -0.000000 
-0.002081 0.716038 -0.041480 4.530800 -8.726200 -0.086000 12.555900 1.838900 1.599000 7.848200 0.859000 -0.286100 7.678300 1.035500 -0.143000 -0.807300 -0.490500 0.062700 -0.000000 0.000000 -0.000000 -12.427900 -7.056600 -1.192700 -12.756200 2.018500 -6.648100 -57.804298 15.913600 1.771200 0.000000 -0.000000 -39.604599 1.828500 -9.187400 8.136900 -4.532400 13.728200 11.893600 12.659100 6.624000 -3.677500 17.879400 -12.637200 -29.773001 -39.305099 0.004000 1.296600 -50.370602 0.005400 -0.011600 -40.122601 0.003500 -0.009700 -36.905201 0.949100 -0.643600 -38.736801 0.003300 -0.009400 -27.396200 0.001700 -0.006900 -49.982300 0.006000 3.201100 -61.946301 0.008000 -0.013300 -49.814800 0.005300 -0.011500 -55.626900 -0.670900 3.043800 -56.030399 0.006600 -0.012500 -56.006199 0.006600 -0.012500 17.735201 1.215500 5.642200 59.652802 0.031600 -6.986000 -0.000000 0.000000 49.617401 -0.468300 0.757300 7.691700 5.650200 23.402000 -14.064400 -7.765800 -2.244100 3.555700 -16.308901 -17.988001 0.257500 33.525700 0.268300 10.587800 34.070202 0.001400 0.004400 34.070202 0.001400 0.004400 32.098400 0.001400 6.503600 46.499901 0.002500 0.005700 26.141001 0.000800 0.003500 33.877899 0.001500 4.574000 51.217701 0.003000 0.006200 5.266100 0.000000 0.000700 41.132702 -0.842100 3.699000 24.272400 0.000700 0.003300 20.059200 0.000500 0.002700 -3.135300 1.975900 6.800900 54.845501 -0.559800 3.338100 -10.021300 2.264200 -17.780300 -7.933700 0.000000 -0.000000 -13.561500 -4.808900 -2.226800 40.326099 -3.679900 -1.469700 -17.926399 -2.840800 2.881200 -0.252100 -0.000000 -0.000000 
-0.002637 0.709803 -0.063035 5.844400 -9.397000 -0.793600 11.910000 -0.211700 2.582300 7.845200 0.384500 -0.110500 7.672300 0.560700 0.033100 -0.826700 -0.156000 -0.027500 -0.000000 0.000000 -0.000000 -12.022300 -5.632600 -1.106600 -13.141400 2.080300 -6.771000 -55.722099 13.504600 -0.881800 -0.000000 -0.000000 -41.596298 0.077800 -10.599200 9.450000 -4.492700 17.391199 14.244200 10.419100 4.752400 -2.262800 15.713600 -15.699300 -24.157200 -44.232101 0.004900 1.681200 -55.116199 0.006400 -0.012300 -44.628502 0.004300 -0.010600 -39.757000 1.333700 0.062800 -41.910099 0.003800 -0.010000 -30.568199 0.002100 -0.007600 -53.523998 0.006800 3.572900 -65.692703 0.008800 -0.013700 -51.384102 0.005700 -0.011700 -64.645302 -1.032600 4.265700 -58.572300 0.007200 -0.012800 -58.535500 0.007200 -0.012800 17.026300 1.104400 4.720700 60.560699 4.981300 -14.752700 0.000000 -0.000000 54.081200 -1.600600 1.526700 2.256100 5.809300 23.059900 -11.849900 -7.933700 -2.032500 2.287200 -17.013300 -17.328300 -1.890800 30.418100 0.314900 10.847700 30.632900 0.001100 0.004000 30.632900 0.001100 0.004000 30.422300 0.001200 6.635400 45.134102 0.002300 0.005600 24.773300 0.000700 0.003300 32.157799 0.001400 4.773200 49.868198 0.002800 0.006100 3.910300 0.000000 0.000500 39.871498 -0.849700 3.680700 22.755301 0.000600 0.003100 18.544399 0.000400 0.002500 3.184900 3.315200 7.895500 53.446201 -3.668400 5.759700 -11.197100 2.958300 -20.416401 -7.625000 0.000000 -0.000000 -15.947600 -5.286500 -2.296700 42.837898 -4.213600 -0.876900 -17.326700 -2.842400 2.746000 -0.252100 0.000000 0.000000 
-0.002609 0.704305 -0.085351 6.986300 -10.059500 -1.372300 11.501100 -2.359800 3.261000 7.881900 -0.080500 0.030200 7.706300 0.094600 0.172800 -0.730600 0.188500 -0.117800 -0.000000 0.000000 -0.000000 -11.639500 -3.866700 -0.889900 -13.620200 2.197300 -7.113000 -53.801300 10.156600 -2.630900 0.000000 0.000000 -44.692699 -5.228600 -11.850300 13.123400 -4.760300 20.645500 16.281799 8.431100 3.203300 -2.948100 14.506200 -18.687700 -17.307699 -49.233700 0.005900 1.843300 -60.444000 0.007600 -0.013100 -48.791698 0.005100 -0.011300 -42.629799 1.878000 0.452100 -44.962799 0.004400 -0.010600 -33.620499 0.002500 -0.008300 -57.292000 0.007600 3.562600 -70.420799 0.010000 -0.014200 -53.007500 0.006000 -0.012000 -70.769798 -1.227700 4.928800 -59.497398 0.007400 -0.012900 -59.449200 0.007400 -0.013000 16.269699 0.980800 3.709000 62.588100 10.013100 -21.138599 0.000000 -0.000000 56.754299 -3.890700 3.105600 -2.582300 5.972200 22.726000 -9.683400 -8.045500 -1.516600 1.462600 -17.688999 -16.688000 -3.938000 28.432400 0.391300 11.144700 29.437000 0.001000 0.003900 29.437000 0.001000 0.003900 29.146400 0.001100 6.831200 43.765800 0.002200 0.005500 23.400101 0.000700 0.003100 30.723600 0.001300 5.091500 48.608398 0.002700 0.005900 2.640400 0.000000 0.000400 39.336800 -0.838800 4.140400 21.719900 0.000600 0.002900 17.501400 0.000400 0.002400 9.680400 4.418000 8.827200 49.162899 -5.023000 7.766000 -11.327700 -0.428600 -23.334000 -8.695200 0.000000 -0.000000 -18.114000 -6.074500 -2.766400 44.564999 -4.148900 -0.304300 -16.195801 -2.806700 2.474100 -0.252100 -0.000000 -0.000000 
-0.001795 0.699877 -0.109422 8.069000 -10.663100 -1.654800 11.301000 -4.928900 3.409500 7.945500 -0.608800 0.114200 7.768200 -0.434700 0.254500 -0.632000 0.546100 -0.148300 -0.000000 0.000000 -0.000000 -11.502400 -1.986300 -0.502500 -13.769400 2.293800 -7.503200 -52.801998 5.352300 -2.797000 -0.000000 -0.000000 -50.195801 -10.284500 -10.682800 17.500601 -5.179800 23.150999 17.705900 7.662200 -1.675400 -5.138700 14.137600 -21.154900 -11.700100 -53.639198 0.006800 1.682400 -65.400002 0.008800 -0.013700 -52.117901 0.005800 -0.011900 -47.184101 3.140600 -0.244800 -48.372601 0.005100 -0.011200 -37.029701 0.003000 -0.009000 -61.019501 0.008500 3.481900 -75.134499 0.011200 -0.014500 -54.583698 0.006300 -0.012200 -73.892197 -1.478700 5.226400 -58.634701 0.007200 -0.012800 -58.577301 0.007200 -0.012800 15.306600 0.888900 2.751900 66.072701 15.018800 -26.078300 -0.000000 0.000000 57.828098 -7.084900 4.714600 -6.565100 6.127600 22.421600 -7.702400 -8.106300 -1.051800 0.822700 -18.290800 -16.101700 -5.782900 26.417299 0.527800 11.456800 27.722099 0.000900 0.003700 27.722099 0.000900 0.003700 28.003000 0.001000 7.072700 42.501301 0.002100 0.005400 22.126400 0.000600 0.003000 29.801800 0.001200 5.474000 47.553001 0.002600 0.005800 1.573600 0.000000 0.000200 39.425900 -0.848500 4.679000 21.345400 0.000500 0.002900 17.115900 0.000400 0.002300 15.423400 5.378600 9.391700 42.752998 -4.270500 9.161400 -10.443000 -6.773500 -24.965300 -9.634000 0.000000 -0.000000 -20.154900 -6.938000 -3.706400 45.414398 -3.854800 0.170400 -14.418900 -2.731100 2.182600 -0.252000 0.000000 0.000000 
